<svg id="visual" viewBox="0 0 900 450" width="900" height="450" xmlns="http://www.w3.org/2000/svg" xmlns:xlink="http://www.w3.org/1999/xlink" version="1.1"><path d="M0 46L16.7 46C33.3 46 66.7 46 100 44.5C133.3 43 166.7 40 200 38.5C233.3 37 266.7 37 300 35.5C333.3 34 366.7 31 400 34.8C433.3 38.7 466.7 49.3 500 52.3C533.3 55.3 566.7 50.7 600 50.7C633.3 50.7 666.7 55.3 700 56.8C733.3 58.3 766.7 56.7 800 54.3C833.3 52 866.7 49 883.3 47.5L900 46L900 0L883.3 0C866.7 0 833.3 0 800 0C766.7 0 733.3 0 700 0C666.7 0 633.3 0 600 0C566.7 0 533.3 0 500 0C466.7 0 433.3 0 400 0C366.7 0 333.3 0 300 0C266.7 0 233.3 0 200 0C166.7 0 133.3 0 100 0C66.7 0 33.3 0 16.7 0L0 0Z" fill="#6198ff"></path><path d="M0 78L16.7 77.2C33.3 76.3 66.7 74.7 100 76.8C133.3 79 166.7 85 200 84.3C233.3 83.7 266.7 76.3 300 74.8C333.3 73.3 366.7 77.7 400 84.3C433.3 91 466.7 100 500 102.3C533.3 104.7 566.7 100.3 600 102.7C633.3 105 666.7 114 700 113.2C733.3 112.3 766.7 101.7 800 96.3C833.3 91 866.7 91 883.3 91L900 91L900 44L883.3 45.5C866.7 47 833.3 50 800 52.3C766.7 54.7 733.3 56.3 700 54.8C666.7 53.3 633.3 48.7 600 48.7C566.7 48.7 533.3 53.3 500 50.3C466.7 47.3 433.3 36.7 400 32.8C366.7 29 333.3 32 300 33.5C266.7 35 233.3 35 200 36.5C166.7 38 133.3 41 100 42.5C66.7 44 33.3 44 16.7 44L0 44Z" fill="#4385ff"></path><path d="M0 181L16.7 188.5C33.3 196 66.7 211 100 217.8C133.3 224.7 166.7 223.3 200 218.2C233.3 213 266.7 204 300 204C333.3 204 366.7 213 400 214.5C433.3 216 466.7 210 500 207C533.3 204 566.7 204 600 210.7C633.3 217.3 666.7 230.7 700 240.3C733.3 250 766.7 256 800 252.3C833.3 248.7 866.7 235.3 883.3 228.7L900 222L900 89L883.3 89C866.7 89 833.3 89 800 94.3C766.7 99.7 733.3 110.3 700 111.2C666.7 112 633.3 103 600 100.7C566.7 98.3 533.3 102.7 500 100.3C466.7 98 433.3 89 400 82.3C366.7 75.7 333.3 71.3 300 72.8C266.7 74.3 233.3 81.7 200 82.3C166.7 83 133.3 77 100 74.8C66.7 72.7 33.3 74.3 16.7 75.2L0 76Z" fill="#2071ff"></path><path d="M0 267L16.7 270.7C33.3 274.3 66.7 281.7 100 287.7C133.3 293.7 166.7 298.3 200 296.2C233.3 294 266.7 285 300 279C333.3 273 366.7 270 400 265.5C433.3 261 466.7 255 500 254.2C533.3 253.3 566.7 257.7 600 265.2C633.3 272.7 666.7 283.3 700 293.2C733.3 303 766.7 312 800 315.7C833.3 319.3 866.7 317.7 883.3 316.8L900 316L900 220L883.3 226.7C866.7 233.3 833.3 246.7 800 250.3C766.7 254 733.3 248 700 238.3C666.7 228.7 633.3 215.3 600 208.7C566.7 202 533.3 202 500 205C466.7 208 433.3 214 400 212.5C366.7 211 333.3 202 300 202C266.7 202 233.3 211 200 216.2C166.7 221.3 133.3 222.7 100 215.8C66.7 209 33.3 194 16.7 186.5L0 179Z" fill="#0061f1"></path><path d="M0 307L16.7 311.5C33.3 316 66.7 325 100 333.3C133.3 341.7 166.7 349.3 200 352.3C233.3 355.3 266.7 353.7 300 346.8C333.3 340 366.7 328 400 322C433.3 316 466.7 316 500 315.3C533.3 314.7 566.7 313.3 600 319.3C633.3 325.3 666.7 338.7 700 346.2C733.3 353.7 766.7 355.3 800 355.3C833.3 355.3 866.7 353.7 883.3 352.8L900 352L900 314L883.3 314.8C866.7 315.7 833.3 317.3 800 313.7C766.7 310 733.3 301 700 291.2C666.7 281.3 633.3 270.7 600 263.2C566.7 255.7 533.3 251.3 500 252.2C466.7 253 433.3 259 400 263.5C366.7 268 333.3 271 300 277C266.7 283 233.3 292 200 294.2C166.7 296.3 133.3 291.7 100 285.7C66.7 279.7 33.3 272.3 16.7 268.7L0 265Z" fill="#0056d6"></path><path d="M0 451L16.7 451C33.3 451 66.7 451 100 451C133.3 451 166.7 451 200 451C233.3 451 266.7 451 300 451C333.3 451 366.7 451 400 451C433.3 451 466.7 451 500 451C533.3 451 566.7 451 600 451C633.3 451 666.7 451 700 451C733.3 451 766.7 451 800 451C833.3 451 866.7 451 883.3 451L900 451L900 350L883.3 350.8C866.7 351.7 833.3 353.3 800 353.3C766.7 353.3 733.3 351.7 700 344.2C666.7 336.7 633.3 323.3 600 317.3C566.7 311.3 533.3 312.7 500 313.3C466.7 314 433.3 314 400 320C366.7 326 333.3 338 300 344.8C266.7 351.7 233.3 353.3 200 350.3C166.7 347.3 133.3 339.7 100 331.3C66.7 323 33.3 314 16.7 309.5L0 305Z" fill="#004cbb"></path></svg>